<svg xmlns="http://www.w3.org/2000/svg" width="182" height="24">
  <path d="M16 2H0v2a2 2 0 0 0 2 2h12a2 2 0 0 0 2-2V2zM4 2H0V0h3zm7 0H5l1-2h4zm5 0h-4l1-2h3v2zm100 22h-4V8h4v16zm12 0h-4V8h4v16zm-2-6h-14v-4h16v2a2 2 0 0 1-2 2zm8 6h-2a2 2 0 0 1-2-2V10a2 2 0 0 1 2-2h2v16zm12-12h-16v-2a2 2 0 0 1 2-2h12a2 2 0 0 1 2 2v2zm-2 12h-12a2 2 0 0 1-2-2v-2h16v2a2 2 0 0 1-2 2zm-2-4h4v-8h-4v8zm28 4h-4V8h4v16zm12-12h-16V8h12a4 4 0 0 1 4 4zm-4 12h-12v-4h16a4 4 0 0 1-4 4zm0-4h4v-8h-4v8zm-26 4h-2a2 2 0 0 1-2-2V8h4v16zm10 0h-12a2 2 0 0 1-2-2v-2h16v2a2 2 0 0 1-2 2z" fill="#ff7373" fill-rule="evenodd"/>
  <path d="M2 8h14v4H4v2h10a2 2 0 0 1 2 2v6a2 2 0 0 1-2 2H0v-4h12v-2H2a2 2 0 0 1-2-2v-6a2 2 0 0 1 2-2zm90 4H74a2 2 0 0 1-2-2V8h18a2 2 0 0 1 2 2v2zm-8 12h-4V12h4v12zm-62 0h-4V8h4v16zm12-12H18V8h14a2 2 0 0 1 2 2v2zm-2 6H18v-4h16v2a2 2 0 0 1-2 2zm-2-4h4v-2h-4v2zm10 10h-2a2 2 0 0 1-2-2V10a2 2 0 0 1 2-2h2v16zm12-12H36v-2a2 2 0 0 1 2-2h12a2 2 0 0 1 2 2v2zm-2 12H38a2 2 0 0 1-2-2v-2h16v2a2 2 0 0 1-2 2zm-2-4h4v-8h-4v8zm10 4h-4V8h4v16zm12 0h-5l-4-6h5zm0-12H54V8h14a2 2 0 0 1 2 2v2zm-2 6H54v-4h16v2a2 2 0 0 1-2 2zm-2-4h4v-2h-4v2zm30-6h14v4H98v2h10a2 2 0 0 1 2 2v6a2 2 0 0 1-2 2H94v-4h12v-2H96a2 2 0 0 1-2-2v-6a2 2 0 0 1 2-2z" fill="#fff" fill-rule="evenodd"/>
</svg>
